<?xml version="1.0" encoding="utf-8"?>
<svg viewBox="71.01 126.851 133.05 17.37" xmlns="http://www.w3.org/2000/svg">
  <path d="M 80.014809765625 134.75400012207032 Q 80.317209765625 134.75400012207032 80.451609765625 134.61960012207032 Q 80.586009765625 134.48520012207032 80.871609765625 134.04840012207032 L 82.92120976562501 130.9236001220703 Q 83.022009765625 130.75560012207032 83.148009765625 130.6968001220703 Q 83.274009765625 130.6380001220703 83.40840976562501 130.6380001220703 L 83.694009765625 130.6380001220703 Q 83.929209765625 130.6380001220703 84.038409765625 130.7640001220703 Q 84.147609765625 130.89000012207032 84.147609765625 131.15880012207032 L 84.147609765625 139.7100001220703 L 83.979609765625 139.7100001220703 L 83.979609765625 131.15880012207032 Q 83.979609765625 131.02440012207032 83.920809765625 130.9152001220703 Q 83.862009765625 130.80600012207032 83.694009765625 130.80600012207032 L 83.442009765625 130.80600012207032 Q 83.324409765625 130.80600012207032 83.240409765625 130.83960012207032 Q 83.156409765625 130.8732001220703 83.05560976562501 131.0412001220703 L 81.00600976562501 134.13240012207032 Q 80.703609765625 134.58600012207032 80.544009765625 134.75400012207032 Q 80.38440976562501 134.9220001220703 80.014809765625 134.9220001220703 Q 79.645209765625 134.9220001220703 79.485609765625 134.75400012207032 Q 79.326009765625 134.58600012207032 79.023609765625 134.13240012207032 L 76.974009765625 131.0412001220703 Q 76.873209765625 130.8732001220703 76.78080976562501 130.83960012207032 Q 76.688409765625 130.80600012207032 76.570809765625 130.80600012207032 L 76.318809765625 130.80600012207032 Q 76.150809765625 130.80600012207032 76.100409765625 130.9152001220703 Q 76.050009765625 131.02440012207032 76.050009765625 131.15880012207032 L 76.050009765625 139.7100001220703 L 75.882009765625 139.7100001220703 L 75.882009765625 131.15880012207032 Q 75.882009765625 130.89000012207032 75.991209765625 130.7640001220703 Q 76.100409765625 130.6380001220703 76.318809765625 130.6380001220703 L 76.60440976562501 130.6380001220703 Q 76.738809765625 130.6380001220703 76.873209765625 130.6968001220703 Q 77.007609765625 130.75560012207032 77.108409765625 130.9236001220703 L 79.158009765625 134.04840012207032 Q 79.443609765625 134.48520012207032 79.578009765625 134.61960012207032 Q 79.712409765625 134.75400012207032 80.014809765625 134.75400012207032 Z M 77.209209765625 141.2220001220703 Q 77.528409765625 141.2220001220703 77.67120976562501 141.07920012207032 Q 77.814009765625 140.93640012207032 77.814009765625 140.6172001220703 L 77.814009765625 134.7036001220703 L 78.805209765625 136.53480012207032 Q 78.956409765625 136.8204001220703 79.166409765625 136.94640012207032 Q 79.376409765625 137.07240012207032 79.695609765625 137.07240012207032 L 80.367609765625 137.07240012207032 Q 80.686809765625 137.07240012207032 80.896809765625 136.94640012207032 Q 81.106809765625 136.8204001220703 81.258009765625 136.53480012207032 L 82.249209765625 134.7036001220703 L 82.249209765625 140.6172001220703 Q 82.249209765625 140.93640012207032 82.392009765625 141.07920012207032 Q 82.534809765625 141.2220001220703 82.854009765625 141.2220001220703 L 85.441209765625 141.2220001220703 Q 85.760409765625 141.2220001220703 85.90320976562501 141.07920012207032 Q 86.046009765625 140.93640012207032 86.046009765625 140.6172001220703 L 86.046009765625 129.73080012207032 Q 86.046009765625 129.4116001220703 85.90320976562501 129.2688001220703 Q 85.760409765625 129.1260001220703 85.441209765625 129.1260001220703 L 82.719609765625 129.1260001220703 Q 82.450809765625 129.1260001220703 82.274409765625 129.24360012207032 Q 82.098009765625 129.3612001220703 81.946809765625 129.6300001220703 L 80.451609765625 132.3684001220703 Q 80.367609765625 132.5196001220703 80.308809765625 132.58680012207031 Q 80.25000976562501 132.6540001220703 80.149209765625 132.6540001220703 L 79.998009765625 132.6540001220703 Q 79.897209765625 132.6540001220703 79.838409765625 132.58680012207031 Q 79.779609765625 132.5196001220703 79.695609765625 132.3684001220703 L 78.18360976562501 129.6300001220703 Q 78.032409765625 129.3612001220703 77.856009765625 129.24360012207032 Q 77.679609765625 129.1260001220703 77.410809765625 129.1260001220703 L 74.706009765625 129.1260001220703 Q 74.386809765625 129.1260001220703 74.244009765625 129.2688001220703 Q 74.101209765625 129.4116001220703 74.101209765625 129.73080012207032 L 74.101209765625 140.6172001220703 Q 74.101209765625 140.93640012207032 74.244009765625 141.07920012207032 Q 74.386809765625 141.2220001220703 74.706009765625 141.2220001220703 Z M 77.746809765625 141.2388001220703 L 75.562809765625 143.0532001220703 Q 75.495609765625 143.12040012207032 75.352809765625 143.17080012207032 Q 75.210009765625 143.22120012207031 75.042009765625 143.22120012207031 L 72.538809765625 143.22120012207031 Q 72.135609765625 143.22120012207031 71.950809765625 143.03640012207032 Q 71.766009765625 142.85160012207032 71.766009765625 142.44840012207032 L 71.766009765625 131.56200012207032 Q 71.766009765625 131.3436001220703 71.824809765625 131.1924001220703 Q 71.883609765625 131.0412001220703 72.001209765625 130.94040012207032 L 74.168409765625 129.10920012207032 Q 74.252409765625 129.0420001220703 74.395209765625 129.0000001220703 Q 74.538009765625 128.9580001220703 74.706009765625 128.9580001220703 L 77.410809765625 128.9580001220703 Q 77.730009765625 128.9580001220703 77.940009765625 129.0924001220703 Q 78.150009765625 129.2268001220703 78.334809765625 129.54600012207032 L 79.477209765625 131.64600012207032 L 79.62840976562501 131.37720012207032 Q 79.695609765625 131.2596001220703 79.771209765625 131.15040012207032 Q 79.846809765625 131.0412001220703 79.930809765625 130.97400012207032 L 82.098009765625 129.15960012207032 Q 82.23240976562501 129.05880012207032 82.375209765625 129.0084001220703 Q 82.518009765625 128.9580001220703 82.719609765625 128.9580001220703 L 85.441209765625 128.9580001220703 Q 85.844409765625 128.9580001220703 86.029209765625 129.1428001220703 Q 86.21400976562501 129.32760012207032 86.21400976562501 129.73080012207032 L 86.21400976562501 140.6172001220703 Q 86.21400976562501 140.8356001220703 86.155209765625 140.98680012207032 Q 86.096409765625 141.1380001220703 85.978809765625 141.2388001220703 L 83.794809765625 143.0532001220703 Q 83.727609765625 143.12040012207032 83.584809765625 143.17080012207032 Q 83.442009765625 143.22120012207031 83.274009765625 143.22120012207031 L 80.686809765625 143.22120012207031 Q 80.266809765625 143.22120012207031 80.090409765625 143.03640012207032 Q 79.914009765625 142.85160012207032 79.914009765625 142.44840012207032 L 79.914009765625 138.01320012207032 L 78.922809765625 138.8364001220703 Q 78.788409765625 138.9540001220703 78.612009765625 139.0128001220703 Q 78.435609765625 139.07160012207032 78.200409765625 139.07160012207032 L 77.98200976562501 139.07160012207032 L 77.98200976562501 140.6172001220703 Q 77.98200976562501 140.8356001220703 77.923209765625 140.98680012207032 Q 77.864409765625 141.1380001220703 77.746809765625 141.2388001220703 Z" transform="matrix(1, 0, 0, 1, 0, 0)" fill="#ebebeb" whiteSpace="pre"/>
  <path d="M 94.36913299560547 132.2552947998047 L 95.79882049560547 132.2552947998047 L 98.11913299560547 137.5873260498047 L 98.11913299560547 139.7552947998047 L 97.74413299560547 139.7552947998047 L 95.79882049560547 134.9506072998047 L 95.79882049560547 140.8920135498047 L 94.36913299560547 140.8920135498047 Z M 100.91991424560547 132.2552947998047 L 102.34960174560547 132.2552947998047 L 102.34960174560547 140.8920135498047 L 100.91991424560547 140.8920135498047 L 100.91991424560547 134.9506072998047 L 98.98632049560547 139.7552947998047 L 98.59960174560547 139.7552947998047 L 98.59960174560547 137.6107635498047 Z M 104.53092956542969 132.2552947998047 L 105.96061706542969 132.2552947998047 L 105.96061706542969 140.8920135498047 L 104.53092956542969 140.8920135498047 Z M 109.56999206542969 137.0013885498047 L 106.44108581542969 137.0013885498047 L 106.44108581542969 136.0404510498047 L 109.56999206542969 136.0404510498047 Z M 106.44108581542969 139.8256072998047 L 109.93327331542969 139.8256072998047 L 109.93327331542969 140.8920135498047 L 106.44108581542969 140.8920135498047 Z M 109.93327331542969 132.2552947998047 L 109.93327331542969 133.3217010498047 L 106.44108581542969 133.3217010498047 L 106.44108581542969 132.2552947998047 Z M 111.85633850097656 132.2552947998047 L 113.28602600097656 132.2552947998047 L 115.60633850097656 137.5873260498047 L 115.60633850097656 139.7552947998047 L 115.23133850097656 139.7552947998047 L 113.28602600097656 134.9506072998047 L 113.28602600097656 140.8920135498047 L 111.85633850097656 140.8920135498047 Z M 118.40711975097656 132.2552947998047 L 119.83680725097656 132.2552947998047 L 119.83680725097656 140.8920135498047 L 118.40711975097656 140.8920135498047 L 118.40711975097656 134.9506072998047 L 116.47352600097656 139.7552947998047 L 116.08680725097656 139.7552947998047 L 116.08680725097656 137.6107635498047 Z M 122.02594757080078 132.2552947998047 L 123.45563507080078 132.2552947998047 L 123.45563507080078 140.8920135498047 L 122.02594757080078 140.8920135498047 Z M 127.06501007080078 137.0013885498047 L 123.93610382080078 137.0013885498047 L 123.93610382080078 136.0404510498047 L 127.06501007080078 136.0404510498047 Z M 123.93610382080078 139.8256072998047 L 127.42829132080078 139.8256072998047 L 127.42829132080078 140.8920135498047 L 123.93610382080078 140.8920135498047 Z M 127.42829132080078 132.2552947998047 L 127.42829132080078 133.3217010498047 L 123.93610382080078 133.3217010498047 L 123.93610382080078 132.2552947998047 Z M 137.4300079345703 133.9193572998047 Q 137.1487579345703 133.5795135498047 136.7854766845703 133.4271697998047 Q 136.4221954345703 133.2748260498047 136.0354766845703 133.2748260498047 L 135.9886016845703 133.2748260498047 L 135.9886016845703 132.1146697998047 L 136.0003204345703 132.1146697998047 Q 136.7034454345703 132.1146697998047 137.3128204345703 132.3490447998047 Q 137.9221954345703 132.5834197998047 138.4026641845703 133.0521697998047 Z M 132.4026641845703 136.5326385498047 Q 132.4026641845703 135.5248260498047 132.6370391845703 134.7455291748047 Q 132.8714141845703 133.9662322998047 133.2815704345703 133.4213104248047 Q 133.6917266845703 132.8763885498047 134.2659454345703 132.5599822998047 Q 134.8401641845703 132.2435760498047 135.5081329345703 132.1615447998047 L 135.5081329345703 133.3334197998047 Q 135.1565704345703 133.4271697998047 134.8577423095703 133.6498260498047 Q 134.5589141845703 133.8724822998047 134.3303985595703 134.2650604248047 Q 134.1018829345703 134.6576385498047 133.9729766845703 135.2142791748047 Q 133.8440704345703 135.7709197998047 133.8323516845703 136.5326385498047 Q 133.8440704345703 137.2943572998047 133.9729766845703 137.8685760498047 Q 134.1018829345703 138.4427947998047 134.3303985595703 138.8588104248047 Q 134.5589141845703 139.2748260498047 134.8577423095703 139.5209197998047 Q 135.1565704345703 139.7670135498047 135.5081329345703 139.8607635498047 L 135.5081329345703 140.9271697998047 Q 134.8401641845703 140.8451385498047 134.2659454345703 140.5228729248047 Q 133.6917266845703 140.2006072998047 133.2815704345703 139.6498260498047 Q 132.8714141845703 139.0990447998047 132.6370391845703 138.3197479248047 Q 132.4026641845703 137.5404510498047 132.4026641845703 136.5326385498047 Z M 138.8479766845703 136.4388885498047 L 138.8479766845703 139.7787322998047 Q 138.5784454345703 140.1185760498047 138.2444610595703 140.3353729248047 Q 137.9104766845703 140.5521697998047 137.5413360595703 140.6927947998047 Q 137.1721954345703 140.8334197998047 136.7796173095703 140.8920135498047 Q 136.3870391845703 140.9506072998047 136.0003204345703 140.9506072998047 L 135.9886016845703 140.9506072998047 L 135.9886016845703 139.9193572998047 Q 136.1292266845703 139.9193572998047 136.3343048095703 139.9017791748047 Q 136.5393829345703 139.8842010498047 136.7561798095703 139.8431854248047 Q 136.9729766845703 139.8021697998047 137.1663360595703 139.7318572998047 Q 137.3596954345703 139.6615447998047 137.4534454345703 139.5326385498047 L 137.4534454345703 137.3998260498047 L 135.9886016845703 137.3998260498047 L 135.9886016845703 136.4388885498047 Z M 140.9118194580078 132.2552947998047 L 142.3415069580078 132.2552947998047 L 142.3415069580078 140.8920135498047 L 140.9118194580078 140.8920135498047 Z M 145.9508819580078 137.0013885498047 L 142.8219757080078 137.0013885498047 L 142.8219757080078 136.0404510498047 L 145.9508819580078 136.0404510498047 Z M 142.8219757080078 139.8256072998047 L 146.3141632080078 139.8256072998047 L 146.3141632080078 140.8920135498047 L 142.8219757080078 140.8920135498047 Z M 146.3141632080078 132.2552947998047 L 146.3141632080078 133.3217010498047 L 142.8219757080078 133.3217010498047 L 142.8219757080078 132.2552947998047 Z M 153.0536346435547 132.2552947998047 L 154.4833221435547 132.2552947998047 L 154.4833221435547 140.8920135498047 L 153.0536346435547 140.8920135498047 L 150.1473846435547 135.7826385498047 L 150.1473846435547 133.0873260498047 L 153.0536346435547 138.2084197998047 Z M 148.2372283935547 140.8920135498047 L 148.2372283935547 132.2552947998047 L 149.6669158935547 132.2552947998047 L 149.6669158935547 140.8920135498047 Z M 156.65655517578125 132.2552947998047 L 158.08624267578125 132.2552947998047 L 158.08624267578125 140.8920135498047 L 156.65655517578125 140.8920135498047 Z M 161.69561767578125 137.0013885498047 L 158.56671142578125 137.0013885498047 L 158.56671142578125 136.0404510498047 L 161.69561767578125 136.0404510498047 Z M 158.56671142578125 139.8256072998047 L 162.05889892578125 139.8256072998047 L 162.05889892578125 140.8920135498047 L 158.56671142578125 140.8920135498047 Z M 162.05889892578125 132.2552947998047 L 162.05889892578125 133.3217010498047 L 158.56671142578125 133.3217010498047 L 158.56671142578125 132.2552947998047 Z M 163.95852661132812 132.2552947998047 L 165.36477661132812 132.2552947998047 L 165.36477661132812 140.8920135498047 L 163.95852661132812 140.8920135498047 Z M 169.81790161132812 140.8920135498047 L 168.32962036132812 140.8920135498047 L 166.70071411132812 137.7631072998047 Q 166.66555786132812 137.7631072998047 166.62454223632812 137.7689666748047 Q 166.58352661132812 137.7748260498047 166.50149536132812 137.7748260498047 Q 166.41946411132812 137.7748260498047 166.26126098632812 137.7748260498047 Q 166.10305786132812 137.7748260498047 165.84524536132812 137.7748260498047 L 165.84524536132812 136.7435760498047 L 166.64212036132812 136.7435760498047 Q 166.89993286132812 136.7435760498047 167.15774536132812 136.6556854248047 Q 167.41555786132812 136.5677947998047 167.62649536132812 136.3685760498047 Q 167.83743286132812 136.1693572998047 167.96633911132812 135.8119354248047 Q 168.09524536132812 135.4545135498047 168.09524536132812 134.9271697998047 Q 168.09524536132812 134.7162322998047 168.03665161132812 134.4408416748047 Q 167.97805786132812 134.1654510498047 167.79641723632812 133.9134979248047 Q 167.61477661132812 133.6615447998047 167.28665161132812 133.4916229248047 Q 166.95852661132812 133.3217010498047 166.41946411132812 133.3217010498047 L 165.84524536132812 133.3217010498047 L 165.84524536132812 132.2552947998047 L 166.44290161132812 132.2552947998047 Q 166.99368286132812 132.2552947998047 167.53274536132812 132.4310760498047 Q 168.07180786132812 132.6068572998047 168.49954223632812 132.9584197998047 Q 168.92727661132812 133.3099822998047 169.19094848632812 133.8080291748047 Q 169.45462036132812 134.3060760498047 169.45462036132812 134.9271697998047 Q 169.45462036132812 135.8646697998047 169.02102661132812 136.5209197998047 Q 168.58743286132812 137.1771697998047 167.84915161132812 137.4935760498047 Z M 178.78790283203125 140.8920135498047 L 177.33477783203125 140.8920135498047 L 175.09649658203125 134.4232635498047 L 172.83477783203125 140.8920135498047 L 171.36993408203125 140.8920135498047 L 174.39337158203125 132.2670135498047 L 175.78790283203125 132.2670135498047 Z M 175.86993408203125 138.1498260498047 L 176.20977783203125 139.0990447998047 L 173.97149658203125 139.0990447998047 L 174.29962158203125 138.1498260498047 Z M 186.6956024169922 132.2552947998047 L 186.6956024169922 133.2162322998047 L 184.1174774169922 133.2162322998047 L 184.1174774169922 140.8920135498047 L 182.6995086669922 140.8920135498047 L 182.6995086669922 133.2162322998047 L 180.1213836669922 133.2162322998047 L 180.1213836669922 132.2552947998047 Z M 188.1929473876953 136.5326385498047 Q 188.1929473876953 135.4896697998047 188.4449005126953 134.6869354248047 Q 188.6968536376953 133.8842010498047 189.1480255126953 133.3275604248047 Q 189.5991973876953 132.7709197998047 190.2144317626953 132.4720916748047 Q 190.8296661376953 132.1732635498047 191.5562286376953 132.1263885498047 L 191.5562286376953 133.2982635498047 Q 191.1577911376953 133.3451385498047 190.8062286376953 133.5443572998047 Q 190.4546661376953 133.7435760498047 190.1968536376953 134.1302947998047 Q 189.9390411376953 134.5170135498047 189.7866973876953 135.1146697998047 Q 189.6343536376953 135.7123260498047 189.6226348876953 136.5326385498047 Q 189.6343536376953 137.3646697998047 189.7866973876953 137.9564666748047 Q 189.9390411376953 138.5482635498047 190.2027130126953 138.9467010498047 Q 190.4663848876953 139.3451385498047 190.8179473876953 139.5502166748047 Q 191.1695098876953 139.7552947998047 191.5562286376953 139.7904510498047 L 191.5562286376953 140.9506072998047 Q 190.8413848876953 140.9037322998047 190.2202911376953 140.6049041748047 Q 189.5991973876953 140.3060760498047 189.1480255126953 139.7494354248047 Q 188.6968536376953 139.1927947998047 188.4449005126953 138.3842010498047 Q 188.1929473876953 137.5756072998047 188.1929473876953 136.5326385498047 Z M 192.0249786376953 132.1263885498047 Q 192.7398223876953 132.1615447998047 193.3550567626953 132.4662322998047 Q 193.9702911376953 132.7709197998047 194.4214630126953 133.3275604248047 Q 194.8726348876953 133.8842010498047 195.1304473876953 134.6869354248047 Q 195.3882598876953 135.4896697998047 195.3882598876953 136.5326385498047 Q 195.3882598876953 137.5756072998047 195.1304473876953 138.3842010498047 Q 194.8726348876953 139.1927947998047 194.4214630126953 139.7494354248047 Q 193.9702911376953 140.3060760498047 193.3609161376953 140.6049041748047 Q 192.7515411376953 140.9037322998047 192.0249786376953 140.9506072998047 L 192.0249786376953 139.7904510498047 Q 192.4234161376953 139.7435760498047 192.7749786376953 139.5384979248047 Q 193.1265411376953 139.3334197998047 193.3843536376953 138.9408416748047 Q 193.6421661376953 138.5482635498047 193.7945098876953 137.9564666748047 Q 193.9468536376953 137.3646697998047 193.9585723876953 136.5326385498047 Q 193.9468536376953 135.7006072998047 193.7945098876953 135.1088104248047 Q 193.6421661376953 134.5170135498047 193.3784942626953 134.1244354248047 Q 193.1148223876953 133.7318572998047 192.7632598876953 133.5267791748047 Q 192.4116973876953 133.3217010498047 192.0249786376953 133.2865447998047 Z M 197.3467559814453 132.2552947998047 L 198.7530059814453 132.2552947998047 L 198.7530059814453 140.8920135498047 L 197.3467559814453 140.8920135498047 Z M 203.2061309814453 140.8920135498047 L 201.7178497314453 140.8920135498047 L 200.0889434814453 137.7631072998047 Q 200.0537872314453 137.7631072998047 200.0127716064453 137.7689666748047 Q 199.9717559814453 137.7748260498047 199.8897247314453 137.7748260498047 Q 199.8076934814453 137.7748260498047 199.6494903564453 137.7748260498047 Q 199.4912872314453 137.7748260498047 199.2334747314453 137.7748260498047 L 199.2334747314453 136.7435760498047 L 200.0303497314453 136.7435760498047 Q 200.2881622314453 136.7435760498047 200.5459747314453 136.6556854248047 Q 200.8037872314453 136.5677947998047 201.0147247314453 136.3685760498047 Q 201.2256622314453 136.1693572998047 201.3545684814453 135.8119354248047 Q 201.4834747314453 135.4545135498047 201.4834747314453 134.9271697998047 Q 201.4834747314453 134.7162322998047 201.4248809814453 134.4408416748047 Q 201.3662872314453 134.1654510498047 201.1846466064453 133.9134979248047 Q 201.0030059814453 133.6615447998047 200.6748809814453 133.4916229248047 Q 200.3467559814453 133.3217010498047 199.8076934814453 133.3217010498047 L 199.2334747314453 133.3217010498047 L 199.2334747314453 132.2552947998047 L 199.8311309814453 132.2552947998047 Q 200.3819122314453 132.2552947998047 200.9209747314453 132.4310760498047 Q 201.4600372314453 132.6068572998047 201.8877716064453 132.9584197998047 Q 202.3155059814453 133.3099822998047 202.5791778564453 133.8080291748047 Q 202.8428497314453 134.3060760498047 202.8428497314453 134.9271697998047 Q 202.8428497314453 135.8646697998047 202.4092559814453 136.5209197998047 Q 201.9756622314453 137.1771697998047 201.2373809814453 137.4935760498047 Z" transform="matrix(1, 0, 0, 1, 0, 0)" fill="#ebebeb" whiteSpace="pre" />
  <line fill="#a10413" stroke="#a10413" x1="90.54" y1="127.941" x2="90.752" y2="144.221"/>
</svg>